<svg width="290" height="290" viewBox="0 0 290 290" fill="none" xmlns="http://www.w3.org/2000/svg">
<rect width="290" height="290" rx="29.0909" fill="url(#paint0_linear_490_138)"/>
<path d="M63.3013 59C62.7679 59 62.3279 58.84 61.9813 58.52C61.6613 58.1733 61.5013 57.7333 61.5013 57.2V57.08C61.5013 56.0667 62.0346 55.08 63.1013 54.12C66.8346 50.7067 69.5813 47.7867 71.3413 45.36C73.3146 42.6667 74.3013 40.3067 74.3013 38.28C74.3013 36.7867 73.9013 35.6133 73.1013 34.76C72.3279 33.9067 71.2479 33.48 69.8613 33.48C68.6613 33.48 67.4479 33.9333 66.2213 34.84C65.0213 35.96 63.8746 35.9733 62.7813 34.88C61.7413 33.84 61.7946 32.7733 62.9413 31.68C65.1546 29.7867 67.7146 28.84 70.6213 28.84C73.4213 28.84 75.6746 29.68 77.3813 31.36C79.0879 33.0133 79.9413 35.2133 79.9413 37.96C79.9413 42.4667 76.6613 47.9333 70.1013 54.36C72.0746 54.1467 73.6746 54.04 74.9013 54.04H78.8613C80.5146 54.04 81.3413 54.8667 81.3413 56.52C81.3413 58.1733 80.5146 59 78.8613 59H71.4213H63.3013ZM95.1359 59.56C92.0426 59.56 89.6159 58.2533 87.8559 55.64C86.0159 52.92 85.0959 49.0667 85.0959 44.08C85.0959 39.0933 86.0159 35.2667 87.8559 32.6C89.5893 30.0933 92.0159 28.84 95.1359 28.84C98.2293 28.84 100.643 30.1067 102.376 32.64C104.216 35.28 105.136 39.0933 105.136 44.08C105.136 49.0667 104.216 52.92 102.376 55.64C100.643 58.2533 98.2293 59.56 95.1359 59.56ZM95.1359 54.96C98.0959 54.96 99.5759 51.3333 99.5759 44.08C99.5759 36.96 98.0959 33.4 95.1359 33.4C92.1493 33.4 90.6559 36.96 90.6559 44.08C90.6559 48 91.0826 50.8533 91.9359 52.64C92.6826 54.1867 93.7493 54.96 95.1359 54.96ZM110.411 59C109.877 59 109.437 58.84 109.091 58.52C108.771 58.1733 108.611 57.7333 108.611 57.2V57.08C108.611 56.0667 109.144 55.08 110.211 54.12C113.944 50.7067 116.691 47.7867 118.451 45.36C120.424 42.6667 121.411 40.3067 121.411 38.28C121.411 36.7867 121.011 35.6133 120.211 34.76C119.437 33.9067 118.357 33.48 116.971 33.48C115.771 33.48 114.557 33.9333 113.331 34.84C112.131 35.96 110.984 35.9733 109.891 34.88C108.851 33.84 108.904 32.7733 110.051 31.68C112.264 29.7867 114.824 28.84 117.731 28.84C120.531 28.84 122.784 29.68 124.491 31.36C126.197 33.0133 127.051 35.2133 127.051 37.96C127.051 42.4667 123.771 47.9333 117.211 54.36C119.184 54.1467 120.784 54.04 122.011 54.04H125.971C127.624 54.04 128.451 54.8667 128.451 56.52C128.451 58.1733 127.624 59 125.971 59H118.531H110.411ZM141.405 59.56C137.912 59.56 135.032 58.6 132.765 56.68C131.912 55.88 131.899 54.92 132.725 53.8C133.739 52.44 134.912 52.28 136.245 53.32C137.685 54.28 139.219 54.76 140.845 54.76C142.365 54.76 143.579 54.4 144.485 53.68C145.419 52.96 145.885 51.9467 145.885 50.64C145.885 49.44 145.565 48.4933 144.925 47.8C144.205 47.0267 143.019 46.4933 141.365 46.2C140.539 46.12 139.752 45.88 139.005 45.48C138.152 45 137.725 44.44 137.725 43.8C137.725 43.16 138.112 42.5867 138.885 42.08C139.579 41.68 140.325 41.44 141.125 41.36C143.659 40.7467 144.925 39.3467 144.925 37.16C144.925 35.9867 144.579 35.08 143.885 34.44C143.192 33.8 142.219 33.4667 140.965 33.44C139.685 33.4667 138.499 33.8267 137.405 34.52C136.765 35 136.125 35.2267 135.485 35.2C134.872 35.1467 134.325 34.8267 133.845 34.24C132.859 33.0667 132.992 32 134.245 31.04C136.432 29.5733 138.765 28.84 141.245 28.84C144.152 28.84 146.472 29.52 148.205 30.88C149.965 32.2667 150.845 34.2133 150.845 36.72C150.845 39.92 149.192 42.1733 145.885 43.48V43.68C147.645 44.16 149.059 45 150.125 46.2C151.245 47.5067 151.805 49.0933 151.805 50.96C151.805 53.6 150.779 55.7067 148.725 57.28C146.805 58.8 144.365 59.56 141.405 59.56ZM176.16 62.52C174.533 62.52 173.72 61.7067 173.72 60.08V53.96H158.2C156.68 53.96 155.92 53.2 155.92 51.68C155.92 50.16 156.68 49.4 158.2 49.4H162.16V41.52C162.16 40.7467 162.4 40.12 162.88 39.64C163.36 39.16 163.987 38.92 164.76 38.92H173.72V34.12H165.24C164.147 36.0933 162.867 37.96 161.4 39.72C160.84 40.3333 160.307 40.6667 159.8 40.72C159.293 40.7733 158.707 40.5467 158.04 40.04C157.24 39.4267 156.827 38.8267 156.8 38.24C156.773 37.6533 157.12 37 157.84 36.28C159.973 33.88 161.787 30.88 163.28 27.28C163.84 25.76 164.88 25.2 166.4 25.6C168.053 26.0533 168.587 27.0533 168 28.6C167.973 28.7067 167.907 28.8667 167.8 29.08C167.72 29.2667 167.653 29.4133 167.6 29.52H178.76H187.68C189.2 29.52 189.96 30.28 189.96 31.8C189.96 33.3467 189.2 34.12 187.68 34.12H178.6V38.92H186.84C188.307 38.92 189.04 39.6533 189.04 41.12C189.04 42.5867 188.307 43.32 186.84 43.32H178.6V49.4H189.84C191.36 49.4 192.12 50.16 192.12 51.68C192.12 53.2 191.36 53.96 189.84 53.96H178.6V60.08C178.6 61.7067 177.787 62.52 176.16 62.52ZM166.88 49.4H173.72V43.32H170.28H167.84C167.2 43.32 166.88 43.64 166.88 44.28V49.4ZM231.32 60.84C230.413 61.9867 229.293 62.0933 227.96 61.16C226.867 60.2267 225.88 59.2667 225 58.28C224.36 59.16 223.6 60.0133 222.72 60.84C222.107 61.3733 221.453 61.6 220.76 61.52C220.067 61.4667 219.467 61.1333 218.96 60.52C218.827 60.36 218.68 60.2133 218.52 60.08V60.32C218.52 61.7333 217.813 62.44 216.4 62.44C214.96 62.44 214.24 61.7333 214.24 60.32V29.4C214.24 28.6267 214.48 28 214.96 27.52C215.44 27.04 216.067 26.8 216.84 26.8H222.48H228.16C228.933 26.8 229.56 27.04 230.04 27.52C230.52 28 230.76 28.6267 230.76 29.4V34.32C230.76 35.3867 230.627 36.2 230.36 36.76C230.04 37.3733 229.507 37.84 228.76 38.16C227.853 38.5333 226.467 38.7467 224.6 38.8C223.027 38.8533 222.053 38.3067 221.68 37.16C221.147 35.56 222 34.7867 224.24 34.84C224.693 34.84 225.147 34.84 225.6 34.84C226.133 34.8133 226.4 34.6133 226.4 34.24V31.92C226.4 31.28 226.08 30.96 225.44 30.96H219.48C218.84 30.96 218.52 31.28 218.52 31.92V40.52H228.88C229.733 40.52 230.36 40.8 230.76 41.36C231.187 41.8933 231.32 42.6667 231.16 43.68C230.413 47.6533 229.2 51.2267 227.52 54.4C228.4 55.4133 229.387 56.3333 230.48 57.16C231.36 57.72 231.867 58.2667 232 58.8C232.16 59.4133 231.933 60.0933 231.32 60.84ZM204.76 62.36C203.293 62.36 202.56 61.64 202.56 60.2V55.08H198.64C197.307 55.08 196.64 54.4133 196.64 53.08C196.64 51.7467 197.307 51.08 198.64 51.08H202.56V48H198.32C196.987 48 196.32 47.3333 196.32 46C196.32 44.6667 196.987 44 198.32 44H199.32C199.187 43.2 198.907 42.2 198.48 41C198.187 40.1467 198.467 39.6133 199.32 39.4L199.44 39.36H197.52C196.187 39.36 195.52 38.6933 195.52 37.36C195.52 36.0267 196.187 35.36 197.52 35.36H199.04H202.56V32.6H198.84C197.533 32.6 196.88 31.9467 196.88 30.64C196.88 29.3333 197.533 28.68 198.84 28.68H202.56V27.36C202.56 25.92 203.293 25.2 204.76 25.2C206.2 25.2 206.92 25.92 206.92 27.36V28.68H210.08C211.387 28.68 212.04 29.3333 212.04 30.64C212.04 31.9467 211.387 32.6 210.08 32.6H206.92V35.36H211.52C212.853 35.36 213.52 36.0267 213.52 37.36C213.52 38.6933 212.853 39.36 211.52 39.36H210.24L211.12 39.6C211.573 39.7333 211.707 40 211.52 40.4C211.387 40.7467 211.173 41.24 210.88 41.88C210.453 42.8667 210.147 43.5733 209.96 44H210.92C212.253 44 212.92 44.6667 212.92 46C212.92 47.3333 212.253 48 210.92 48H206.92V51.08H210.48C211.813 51.08 212.48 51.7467 212.48 53.08C212.48 54.4133 211.813 55.08 210.48 55.08H206.92V60.2C206.92 61.64 206.2 62.36 204.76 62.36ZM218.52 57.68C218.52 58.32 218.76 58.44 219.24 58.04C220.333 57.08 221.36 55.92 222.32 54.56C220.853 52.1333 219.587 49.2533 218.52 45.92V52.28V57.68ZM224.64 50.48C225.44 48.8267 226.067 47.08 226.52 45.24C226.68 44.6 226.44 44.28 225.8 44.28H221.84C222.133 45.1333 222.547 46.2 223.08 47.48C223.56 48.52 224.08 49.52 224.64 50.48ZM201.84 44H207.64L206.88 43.8C206.56 43.6667 206.44 43.4667 206.52 43.2C206.547 43.1467 206.587 43.0533 206.64 42.92C207.2 41.2667 207.573 40.08 207.76 39.36H204.72H201.72C202.2 40.4 202.6 41.4933 202.92 42.64C202.973 42.9067 202.907 43.1733 202.72 43.44C202.56 43.68 202.307 43.8533 201.96 43.96L201.84 44Z" fill="white"/>
<path opacity="0.2" d="M45 217C48.8702 217 52 220.136 52 224C52 227.864 48.8604 231 45 231C41.1396 231 38 227.864 38 224C38 220.136 41.1298 217 45 217Z" fill="white"/>
<path opacity="0.3" d="M252.328 135.322C257.438 139.148 258.523 146.361 254.754 151.43C250.979 156.499 243.783 157.503 238.672 153.678C233.562 149.852 232.477 142.639 236.246 137.57C240.021 132.501 247.217 131.497 252.328 135.322Z" fill="white"/>
<path opacity="0.3" d="M257.198 99.5637C258.437 100.488 258.699 102.23 257.783 103.454C256.871 104.679 255.127 104.922 253.888 103.998C252.649 103.074 252.387 101.328 253.299 100.104C254.211 98.8792 255.959 98.6358 257.194 99.5637H257.198Z" fill="white"/>
<path opacity="0.3" d="M274.442 204.564C275.681 205.488 275.943 207.23 275.027 208.454C274.115 209.679 272.371 209.922 271.132 208.998C269.894 208.074 269.631 206.328 270.543 205.104C271.455 203.879 273.203 203.636 274.438 204.564H274.442Z" fill="white"/>
<g opacity="0.7">
<path d="M96.4445 81H220V220C220 231.942 210.319 241.622 198.378 241.622H96.4445V81Z" fill="#FFE6CF"/>
<path d="M96.4445 81H220V220C220 231.942 210.319 241.622 198.378 241.622H96.4445V81Z" fill="url(#paint1_linear_490_138)"/>
</g>
<path opacity="0.9" d="M81 94H204.556V233C204.556 244.942 194.875 254.622 182.933 254.622H81V94Z" fill="white"/>
<path d="M148.105 199.92C149.601 205.828 149.114 212.065 146.719 217.669C144.324 223.274 140.153 227.936 134.849 230.938C129.544 233.94 123.4 235.116 117.362 234.284C111.324 233.453 105.727 230.66 101.432 226.336C97.1367 222.011 94.3816 216.395 93.5906 210.352C92.7997 204.308 94.0168 198.173 97.0545 192.889C100.092 187.605 104.782 183.465 110.403 181.108C116.024 178.751 122.263 178.306 128.161 179.842L121.156 206.744L148.105 199.92Z" fill="#D9D9D9"/>
<path d="M148.105 199.92C149.601 205.828 149.114 212.065 146.719 217.669C144.324 223.274 140.153 227.936 134.849 230.938C129.544 233.94 123.4 235.116 117.362 234.284C111.324 233.453 105.727 230.66 101.432 226.336C97.1367 222.011 94.3816 216.395 93.5906 210.352C92.7997 204.308 94.0168 198.173 97.0545 192.889C100.092 187.605 104.782 183.465 110.403 181.108C116.024 178.751 122.263 178.306 128.161 179.842L121.156 206.744L148.105 199.92Z" fill="url(#paint2_linear_490_138)"/>
<path d="M131.375 176.785C136.025 178.02 140.276 180.44 143.711 183.809C147.146 187.178 149.648 191.382 150.972 196.008L124.244 203.655L131.375 176.785Z" fill="#FFD7B3"/>
<rect x="96.4445" y="137.245" width="89.5778" height="4.63333" fill="#FFD8B4"/>
<rect x="96.4445" y="146.511" width="89.5778" height="4.63333" fill="#FFD8B4"/>
<rect x="96.4445" y="155.778" width="89.5778" height="4.63333" fill="#FFD8B4"/>
<rect x="96.4445" y="165.044" width="89.5778" height="4.63333" fill="#FFD8B4"/>
<path d="M115.836 120.875L120.141 117.922C120.786 117.479 121.315 117.094 121.727 116.766C122.138 116.438 122.461 116.146 122.695 115.891C122.93 115.63 123.091 115.396 123.18 115.188C123.268 114.979 123.312 114.771 123.312 114.562C123.312 114.323 123.263 114.099 123.164 113.891C123.065 113.682 122.909 113.5 122.695 113.344C122.487 113.188 122.216 113.065 121.883 112.977C121.555 112.888 121.161 112.844 120.703 112.844C120.036 112.844 119.372 112.938 118.711 113.125C118.049 113.312 117.375 113.612 116.688 114.023L115.547 112.148C116.312 111.674 117.141 111.305 118.031 111.039C118.927 110.773 119.867 110.641 120.852 110.641C121.711 110.641 122.456 110.745 123.086 110.953C123.721 111.156 124.245 111.435 124.656 111.789C125.073 112.143 125.383 112.555 125.586 113.023C125.789 113.492 125.891 113.99 125.891 114.516C125.891 114.922 125.823 115.31 125.688 115.68C125.552 116.049 125.315 116.432 124.977 116.828C124.638 117.224 124.18 117.651 123.602 118.109C123.029 118.562 122.305 119.078 121.43 119.656L119.648 120.828H126.336V123H115.836V120.875ZM128.484 116.867C128.484 115.883 128.633 115 128.93 114.219C129.227 113.438 129.648 112.776 130.195 112.234C130.742 111.688 131.406 111.271 132.188 110.984C132.969 110.698 133.844 110.555 134.812 110.555C135.781 110.555 136.656 110.698 137.438 110.984C138.219 111.271 138.883 111.688 139.43 112.234C139.977 112.776 140.398 113.438 140.695 114.219C140.992 115 141.141 115.883 141.141 116.867C141.141 117.852 140.992 118.734 140.695 119.516C140.398 120.297 139.977 120.958 139.43 121.5C138.883 122.042 138.219 122.456 137.438 122.742C136.656 123.029 135.781 123.172 134.812 123.172C133.844 123.172 132.969 123.029 132.188 122.742C131.406 122.456 130.742 122.042 130.195 121.5C129.648 120.958 129.227 120.297 128.93 119.516C128.633 118.734 128.484 117.852 128.484 116.867ZM130.961 116.859C130.961 117.526 131.049 118.115 131.227 118.625C131.409 119.135 131.667 119.565 132 119.914C132.333 120.258 132.737 120.521 133.211 120.703C133.685 120.88 134.219 120.969 134.812 120.969C135.406 120.969 135.94 120.88 136.414 120.703C136.888 120.521 137.292 120.258 137.625 119.914C137.958 119.565 138.214 119.135 138.391 118.625C138.573 118.115 138.664 117.526 138.664 116.859C138.664 116.198 138.573 115.615 138.391 115.109C138.214 114.599 137.958 114.169 137.625 113.82C137.292 113.471 136.888 113.208 136.414 113.031C135.94 112.849 135.406 112.758 134.812 112.758C134.219 112.758 133.685 112.849 133.211 113.031C132.737 113.208 132.333 113.471 132 113.82C131.667 114.169 131.409 114.599 131.227 115.109C131.049 115.615 130.961 116.198 130.961 116.859ZM143.883 120.875L148.188 117.922C148.833 117.479 149.362 117.094 149.773 116.766C150.185 116.438 150.508 116.146 150.742 115.891C150.977 115.63 151.138 115.396 151.227 115.188C151.315 114.979 151.359 114.771 151.359 114.562C151.359 114.323 151.31 114.099 151.211 113.891C151.112 113.682 150.956 113.5 150.742 113.344C150.534 113.188 150.263 113.065 149.93 112.977C149.602 112.888 149.208 112.844 148.75 112.844C148.083 112.844 147.419 112.938 146.758 113.125C146.096 113.312 145.422 113.612 144.734 114.023L143.594 112.148C144.359 111.674 145.188 111.305 146.078 111.039C146.974 110.773 147.914 110.641 148.898 110.641C149.758 110.641 150.503 110.745 151.133 110.953C151.768 111.156 152.292 111.435 152.703 111.789C153.12 112.143 153.43 112.555 153.633 113.023C153.836 113.492 153.938 113.99 153.938 114.516C153.938 114.922 153.87 115.31 153.734 115.68C153.599 116.049 153.362 116.432 153.023 116.828C152.685 117.224 152.227 117.651 151.648 118.109C151.076 118.562 150.352 119.078 149.477 119.656L147.695 120.828H154.383V123H143.883V120.875ZM157.688 120.094C158.302 120.396 158.958 120.617 159.656 120.758C160.359 120.893 161.044 120.961 161.711 120.961C162.305 120.961 162.818 120.914 163.25 120.82C163.682 120.721 164.039 120.589 164.32 120.422C164.602 120.255 164.81 120.057 164.945 119.828C165.081 119.599 165.148 119.352 165.148 119.086C165.148 118.727 165.026 118.406 164.781 118.125C164.536 117.839 164.164 117.625 163.664 117.484C163.169 117.339 162.542 117.281 161.781 117.312C161.026 117.344 160.135 117.492 159.109 117.758L159.117 115.93L163.68 112.961H157.219V110.789H166.992V112.914L162.977 115.461C163.711 115.461 164.367 115.555 164.945 115.742C165.523 115.93 166.01 116.188 166.406 116.516C166.802 116.844 167.104 117.232 167.312 117.68C167.521 118.128 167.625 118.609 167.625 119.125C167.625 119.734 167.49 120.289 167.219 120.789C166.953 121.284 166.565 121.708 166.055 122.062C165.544 122.411 164.919 122.682 164.18 122.875C163.445 123.068 162.612 123.164 161.68 123.164C160.69 123.164 159.776 123.06 158.938 122.852C158.099 122.638 157.302 122.344 156.547 121.969L157.688 120.094Z" fill="white"/>
<path d="M115.836 120.875L120.141 117.922C120.786 117.479 121.315 117.094 121.727 116.766C122.138 116.438 122.461 116.146 122.695 115.891C122.93 115.63 123.091 115.396 123.18 115.188C123.268 114.979 123.312 114.771 123.312 114.562C123.312 114.323 123.263 114.099 123.164 113.891C123.065 113.682 122.909 113.5 122.695 113.344C122.487 113.188 122.216 113.065 121.883 112.977C121.555 112.888 121.161 112.844 120.703 112.844C120.036 112.844 119.372 112.938 118.711 113.125C118.049 113.312 117.375 113.612 116.688 114.023L115.547 112.148C116.312 111.674 117.141 111.305 118.031 111.039C118.927 110.773 119.867 110.641 120.852 110.641C121.711 110.641 122.456 110.745 123.086 110.953C123.721 111.156 124.245 111.435 124.656 111.789C125.073 112.143 125.383 112.555 125.586 113.023C125.789 113.492 125.891 113.99 125.891 114.516C125.891 114.922 125.823 115.31 125.688 115.68C125.552 116.049 125.315 116.432 124.977 116.828C124.638 117.224 124.18 117.651 123.602 118.109C123.029 118.562 122.305 119.078 121.43 119.656L119.648 120.828H126.336V123H115.836V120.875ZM128.484 116.867C128.484 115.883 128.633 115 128.93 114.219C129.227 113.438 129.648 112.776 130.195 112.234C130.742 111.688 131.406 111.271 132.188 110.984C132.969 110.698 133.844 110.555 134.812 110.555C135.781 110.555 136.656 110.698 137.438 110.984C138.219 111.271 138.883 111.688 139.43 112.234C139.977 112.776 140.398 113.438 140.695 114.219C140.992 115 141.141 115.883 141.141 116.867C141.141 117.852 140.992 118.734 140.695 119.516C140.398 120.297 139.977 120.958 139.43 121.5C138.883 122.042 138.219 122.456 137.438 122.742C136.656 123.029 135.781 123.172 134.812 123.172C133.844 123.172 132.969 123.029 132.188 122.742C131.406 122.456 130.742 122.042 130.195 121.5C129.648 120.958 129.227 120.297 128.93 119.516C128.633 118.734 128.484 117.852 128.484 116.867ZM130.961 116.859C130.961 117.526 131.049 118.115 131.227 118.625C131.409 119.135 131.667 119.565 132 119.914C132.333 120.258 132.737 120.521 133.211 120.703C133.685 120.88 134.219 120.969 134.812 120.969C135.406 120.969 135.94 120.88 136.414 120.703C136.888 120.521 137.292 120.258 137.625 119.914C137.958 119.565 138.214 119.135 138.391 118.625C138.573 118.115 138.664 117.526 138.664 116.859C138.664 116.198 138.573 115.615 138.391 115.109C138.214 114.599 137.958 114.169 137.625 113.82C137.292 113.471 136.888 113.208 136.414 113.031C135.94 112.849 135.406 112.758 134.812 112.758C134.219 112.758 133.685 112.849 133.211 113.031C132.737 113.208 132.333 113.471 132 113.82C131.667 114.169 131.409 114.599 131.227 115.109C131.049 115.615 130.961 116.198 130.961 116.859ZM143.883 120.875L148.188 117.922C148.833 117.479 149.362 117.094 149.773 116.766C150.185 116.438 150.508 116.146 150.742 115.891C150.977 115.63 151.138 115.396 151.227 115.188C151.315 114.979 151.359 114.771 151.359 114.562C151.359 114.323 151.31 114.099 151.211 113.891C151.112 113.682 150.956 113.5 150.742 113.344C150.534 113.188 150.263 113.065 149.93 112.977C149.602 112.888 149.208 112.844 148.75 112.844C148.083 112.844 147.419 112.938 146.758 113.125C146.096 113.312 145.422 113.612 144.734 114.023L143.594 112.148C144.359 111.674 145.188 111.305 146.078 111.039C146.974 110.773 147.914 110.641 148.898 110.641C149.758 110.641 150.503 110.745 151.133 110.953C151.768 111.156 152.292 111.435 152.703 111.789C153.12 112.143 153.43 112.555 153.633 113.023C153.836 113.492 153.938 113.99 153.938 114.516C153.938 114.922 153.87 115.31 153.734 115.68C153.599 116.049 153.362 116.432 153.023 116.828C152.685 117.224 152.227 117.651 151.648 118.109C151.076 118.562 150.352 119.078 149.477 119.656L147.695 120.828H154.383V123H143.883V120.875ZM157.688 120.094C158.302 120.396 158.958 120.617 159.656 120.758C160.359 120.893 161.044 120.961 161.711 120.961C162.305 120.961 162.818 120.914 163.25 120.82C163.682 120.721 164.039 120.589 164.32 120.422C164.602 120.255 164.81 120.057 164.945 119.828C165.081 119.599 165.148 119.352 165.148 119.086C165.148 118.727 165.026 118.406 164.781 118.125C164.536 117.839 164.164 117.625 163.664 117.484C163.169 117.339 162.542 117.281 161.781 117.312C161.026 117.344 160.135 117.492 159.109 117.758L159.117 115.93L163.68 112.961H157.219V110.789H166.992V112.914L162.977 115.461C163.711 115.461 164.367 115.555 164.945 115.742C165.523 115.93 166.01 116.188 166.406 116.516C166.802 116.844 167.104 117.232 167.312 117.68C167.521 118.128 167.625 118.609 167.625 119.125C167.625 119.734 167.49 120.289 167.219 120.789C166.953 121.284 166.565 121.708 166.055 122.062C165.544 122.411 164.919 122.682 164.18 122.875C163.445 123.068 162.612 123.164 161.68 123.164C160.69 123.164 159.776 123.06 158.938 122.852C158.099 122.638 157.302 122.344 156.547 121.969L157.688 120.094Z" fill="url(#paint3_linear_490_138)"/>
<path opacity="0.3" d="M41.4057 111.69C44.0761 109.678 47.8525 110.19 49.8438 112.829C51.8351 115.468 51.2823 119.237 48.6119 121.249C45.9415 123.261 42.165 122.749 40.1738 120.11C38.1825 117.471 38.7352 113.702 41.4057 111.69Z" fill="white"/>
<path opacity="0.3" d="M24.785 161.926C26.019 160.996 27.7645 161.232 28.6836 162.454C29.6038 163.672 29.349 165.415 28.115 166.345C26.881 167.275 25.1319 167.038 24.2118 165.82C23.2916 164.602 23.5474 162.855 24.784 161.93L24.785 161.926Z" fill="white"/>
<path d="M174.75 221.8H170.25V231H174.75V221.8ZM163.5 217.2H159V231H163.5V217.2ZM186 208H181.5V231H186V208Z" fill="url(#paint4_linear_490_138)"/>
<g filter="url(#filter0_bd_490_138)">
<mask id="path-19-inside-1_490_138" fill="white">
<path d="M183.855 227.347C181.984 225.476 180.5 223.255 179.488 220.811C178.475 218.367 177.954 215.747 177.954 213.101C177.954 210.455 178.475 207.835 179.488 205.391C180.5 202.947 181.984 200.726 183.855 198.855L185.168 200.168C183.469 201.866 182.122 203.882 181.203 206.101C180.284 208.321 179.811 210.699 179.811 213.101C179.811 215.503 180.284 217.881 181.203 220.1C182.122 222.32 183.469 224.336 185.168 226.034L183.855 227.347Z"/>
</mask>
<path d="M183.855 227.347C181.984 225.476 180.5 223.255 179.488 220.811C178.475 218.367 177.954 215.747 177.954 213.101C177.954 210.455 178.475 207.835 179.488 205.391C180.5 202.947 181.984 200.726 183.855 198.855L185.168 200.168C183.469 201.866 182.122 203.882 181.203 206.101C180.284 208.321 179.811 210.699 179.811 213.101C179.811 215.503 180.284 217.881 181.203 220.1C182.122 222.32 183.469 224.336 185.168 226.034L183.855 227.347Z" stroke="#FFD8B4" stroke-width="6" mask="url(#path-19-inside-1_490_138)"/>
<circle cx="198.101" cy="213.101" r="27.101" fill="white" fill-opacity="0.1" stroke="#FFD8B4" stroke-width="4"/>
<rect x="215.075" y="236.033" width="8.00461" height="8.00461" transform="rotate(-45 215.075 236.033)" stroke="#FFD8B4"/>
<rect x="218.955" y="242.301" width="10.6355" height="36.5114" rx="1.5" transform="rotate(-45 218.955 242.301)" stroke="#FFD8B4"/>
</g>
<defs>
<filter id="filter0_bd_490_138" x="165" y="180" width="91.1716" height="95.9976" filterUnits="userSpaceOnUse" color-interpolation-filters="sRGB">
<feFlood flood-opacity="0" result="BackgroundImageFix"/>
<feGaussianBlur in="BackgroundImageFix" stdDeviation="2"/>
<feComposite in2="SourceAlpha" operator="in" result="effect1_backgroundBlur_490_138"/>
<feColorMatrix in="SourceAlpha" type="matrix" values="0 0 0 0 0 0 0 0 0 0 0 0 0 0 0 0 0 0 127 0" result="hardAlpha"/>
<feOffset dy="4"/>
<feGaussianBlur stdDeviation="2"/>
<feComposite in2="hardAlpha" operator="out"/>
<feColorMatrix type="matrix" values="0 0 0 0 0 0 0 0 0 0 0 0 0 0 0 0 0 0 0.25 0"/>
<feBlend mode="normal" in2="effect1_backgroundBlur_490_138" result="effect2_dropShadow_490_138"/>
<feBlend mode="normal" in="SourceGraphic" in2="effect2_dropShadow_490_138" result="shape"/>
</filter>
<linearGradient id="paint0_linear_490_138" x1="145" y1="0" x2="145" y2="290" gradientUnits="userSpaceOnUse">
<stop stop-color="#FF922E"/>
<stop offset="1" stop-color="#FDB471"/>
</linearGradient>
<linearGradient id="paint1_linear_490_138" x1="102.56" y1="127.968" x2="218.527" y2="161.18" gradientUnits="userSpaceOnUse">
<stop stop-color="#FE7A00"/>
<stop offset="1" stop-color="#FFC188"/>
</linearGradient>
<linearGradient id="paint2_linear_490_138" x1="96.1077" y1="195.202" x2="145.699" y2="213.666" gradientUnits="userSpaceOnUse">
<stop stop-color="#FE7A00"/>
<stop offset="1" stop-color="#FFC188"/>
</linearGradient>
<linearGradient id="paint3_linear_490_138" x1="110.734" y1="111.353" x2="155.216" y2="144.535" gradientUnits="userSpaceOnUse">
<stop stop-color="#FE7A00"/>
<stop offset="1" stop-color="#FFC188"/>
</linearGradient>
<linearGradient id="paint4_linear_490_138" x1="184.664" y1="214.725" x2="161.641" y2="224.788" gradientUnits="userSpaceOnUse">
<stop stop-color="#FE7A00"/>
<stop offset="1" stop-color="#FFC188"/>
</linearGradient>
</defs>
</svg>
