<svg width="290" height="290" viewBox="0 0 290 290" fill="none" xmlns="http://www.w3.org/2000/svg">
<g clip-path="url(#clip0_62_349)">
<rect width="290" height="290" rx="29.0909" fill="url(#paint0_linear_62_349)"/>
<path d="M51.48 62.12C50.1467 63.0533 49.0533 62.9067 48.2 61.68C47.6933 60.96 47.5067 60.3333 47.64 59.8C47.7733 59.2667 48.2133 58.7467 48.96 58.24C50.5067 56.9333 51.8133 55.28 52.88 53.28C52.64 53.0667 52.28 52.7467 51.8 52.32C51.4 51.92 51.0933 51.6267 50.88 51.44V51.52C50.8 51.8667 50.56 52.0533 50.16 52.08C49.7867 52.08 49.4133 51.9733 49.04 51.76C47.5733 50.88 46.9333 49.96 47.12 49C47.84 45.88 48.56 42.3467 49.28 38.4H48.8C47.36 38.4 46.64 37.68 46.64 36.24C46.64 34.8 47.36 34.08 48.8 34.08H50.04C50.2533 32.9333 50.52 31.2533 50.84 29.04C50.8933 28.6667 50.9333 28.4 50.96 28.24C51.1467 26.88 51.96 26.2533 53.4 26.36C54.92 26.52 55.5733 27.3333 55.36 28.8C55.2 29.7333 54.9467 31.1733 54.6 33.12C54.52 33.5467 54.4667 33.8667 54.44 34.08H58.56C59.3867 34.08 60.0133 34.3333 60.44 34.84C60.8933 35.3467 61.0933 36.0667 61.04 37C60.88 39.48 60.6133 41.8933 60.24 44.24C59.76 47.1467 59.12 49.7733 58.32 52.12C59.5733 53.3733 60.4533 54.2933 60.96 54.88C61.3867 55.3867 61.5867 55.88 61.56 56.36C61.5333 56.7867 61.3067 57.28 60.88 57.84C59.68 59.36 58.52 59.3867 57.4 57.92C57.32 57.84 57.2133 57.72 57.08 57.56C56.7067 57.1333 56.4133 56.8133 56.2 56.6C55 58.68 53.4267 60.52 51.48 62.12ZM82.12 61.84C81.3733 62.9333 80.1867 63.2267 78.56 62.72C75.52 61.52 73.1867 59.44 71.56 56.48C70.1467 59.12 67.7333 61.1467 64.32 62.56C62.6667 63.1733 61.4933 62.9733 60.8 61.96C59.8667 60.5467 60.5733 59.4267 62.92 58.6C65.2133 57.56 66.8267 56.0933 67.76 54.2H62.76C61.3467 54.2 60.64 53.4933 60.64 52.08C60.64 50.6667 61.3467 49.96 62.76 49.96H69C69.0533 49.64 69.08 49.3867 69.08 49.2C69.2133 47.7867 69.9867 47.08 71.4 47.08C72.9733 47.08 73.68 47.88 73.52 49.48C73.52 49.5333 73.5067 49.6133 73.48 49.72C73.48 49.8267 73.4667 49.9067 73.44 49.96H76.32V47C76.32 46.36 76 46.04 75.36 46.04H65C64.2267 46.04 63.6 45.8 63.12 45.32C62.64 44.84 62.4 44.2133 62.4 43.44V32C62.4 30.64 63.0933 29.96 64.48 29.96C65.84 29.96 66.52 30.64 66.52 32V41C66.52 41.64 66.84 41.96 67.48 41.96H73.64H78.16C78.9333 41.96 79.56 42.2 80.04 42.68C80.52 43.16 80.76 43.7867 80.76 44.56V49.96H81.36C82.7733 49.96 83.48 50.6667 83.48 52.08C83.48 53.4933 82.7733 54.2 81.36 54.2H75C76.2 55.9867 77.84 57.32 79.92 58.2C82.5333 58.92 83.2667 60.1333 82.12 61.84ZM54.72 48.92C55.2 47.3733 55.6 45.7467 55.92 44.04C56.24 42.3867 56.4667 40.84 56.6 39.4C56.6267 38.7333 56.3333 38.4 55.72 38.4H53.64C53.24 40.4 52.6667 43.1333 51.92 46.6C52.3467 46.9467 53 47.48 53.88 48.2C54.2533 48.52 54.5333 48.76 54.72 48.92ZM70.68 39.84C69.9067 39.84 69.28 39.6 68.8 39.12C68.32 38.64 68.08 38.0133 68.08 37.24V30.2C68.08 29.4267 68.32 28.8 68.8 28.32C69.28 27.84 69.9067 27.6 70.68 27.6H74.76H78.88C79.6533 27.6 80.28 27.84 80.76 28.32C81.24 28.8 81.48 29.4267 81.48 30.2V37.24C81.48 38.0133 81.24 38.64 80.76 39.12C80.28 39.6 79.6533 39.84 78.88 39.84H70.68ZM73.2 36.04H74.64H76.12C76.76 36.04 77.08 35.72 77.08 35.08V32.36C77.08 31.72 76.76 31.4 76.12 31.4H73.2C72.56 31.4 72.24 31.72 72.24 32.36V35.08C72.24 35.72 72.56 36.04 73.2 36.04ZM104.96 63.4C103.387 63.4 102.6 62.6133 102.6 61.04V54.96C99.5867 57.9733 95.9067 60.44 91.56 62.36C90.2533 62.8933 89.1733 62.64 88.32 61.6C87.6267 60.7467 87.4133 60.0267 87.68 59.44C87.8933 58.9067 88.5467 58.4533 89.64 58.08C93.2133 56.6667 96.24 54.9467 98.72 52.92H89.44C88.08 52.92 87.4 52.2267 87.4 50.84C87.4 49.48 88.08 48.8 89.44 48.8H102.6V46.28H99.6V46.36C99.6267 46.4133 99.5733 46.48 99.44 46.56C98.7467 46.8267 98.0933 46.9067 97.48 46.8C96.7333 46.6933 96.32 46.3467 96.24 45.76C96.24 45.7333 96.24 45.7067 96.24 45.68L89.44 46.6C88.1067 46.8133 87.3733 46.2267 87.24 44.84C87.1067 43.6133 87.64 42.96 88.84 42.88H88.92C89.8533 41.5733 90.7067 40.2667 91.48 38.96C90.6267 38.0533 89.5867 37.0667 88.36 36C87.96 35.6533 87.7733 35.16 87.8 34.52C87.8267 33.9333 88 33.3733 88.32 32.84C88.48 32.5733 88.68 32.3733 88.92 32.24C89.16 32.08 89.3867 32.08 89.6 32.24L89.68 32.28C90.2133 31.24 90.8 29.8667 91.44 28.16C91.8667 26.9867 92.6667 26.6133 93.84 27.04C95.0667 27.4667 95.4 28.32 94.84 29.6C93.9867 31.36 93.1333 32.96 92.28 34.4C92.7333 34.7467 93.1333 35.1067 93.48 35.48C93.8 34.8933 94.12 34.2667 94.44 33.6C94.9467 32.48 95.7733 32.1467 96.92 32.6C98.1733 33.1067 98.4667 33.9467 97.8 35.12C97.7467 35.2267 97.6533 35.3867 97.52 35.6C96.3467 37.5733 95.4533 39.0267 94.84 39.96L96.32 39.48C97.1733 39.24 97.7467 39.5067 98.04 40.28C98.36 41.1333 98.6933 42.2133 99.04 43.52V32.48C99.04 31.7067 99.28 31.08 99.76 30.6C100.24 30.12 100.867 29.88 101.64 29.88H102.44C102.493 29.72 102.547 29.4933 102.6 29.2C102.68 28.9067 102.733 28.6933 102.76 28.56C102.867 27.7333 103.12 27.1467 103.52 26.8C103.92 26.4267 104.533 26.28 105.36 26.36C106.267 26.4667 106.827 26.76 107.04 27.24C107.28 27.6933 107.24 28.36 106.92 29.24C106.893 29.2933 106.853 29.4 106.8 29.56C106.773 29.6933 106.747 29.8 106.72 29.88H109C109.613 29.88 110.093 30.0667 110.44 30.44C110.813 30.7867 111 31.2667 111 31.88V33.08L111.64 32.2C111.933 31.7733 112.293 31.7333 112.72 32.08L112.8 32.16C113.547 30.6933 114.16 29.3467 114.64 28.12C115.067 26.9467 115.867 26.5733 117.04 27C118.267 27.4533 118.573 28.3067 117.96 29.56C116.92 31.64 116.04 33.28 115.32 34.48C115.453 34.6133 115.64 34.8133 115.88 35.08C116.147 35.3467 116.333 35.5333 116.44 35.64C116.653 35.2667 116.933 34.7333 117.28 34.04C117.36 33.8533 117.427 33.72 117.48 33.64C118.013 32.5467 118.853 32.24 120 32.72C121.227 33.2533 121.493 34.12 120.8 35.32C120.4 35.96 119.787 36.9467 118.96 38.28C118.56 38.9467 118.253 39.44 118.04 39.76L119.56 39.2C120.387 38.9067 120.973 39.16 121.32 39.96C122.067 41.8267 122.653 43.6133 123.08 45.32C123.187 45.8 123.133 46.1733 122.92 46.44C122.733 46.7067 122.4 46.9333 121.92 47.12C120.693 47.6267 119.933 47.2133 119.64 45.88C119.64 45.8533 119.64 45.8267 119.64 45.8C118.813 45.9067 117.6 46.0533 116 46.24C113.813 46.48 112.213 46.6667 111.2 46.8C110.933 46.8533 110.773 46.72 110.72 46.4V46.28H107.32V48.8H114.96H120.6C121.96 48.8 122.64 49.48 122.64 50.84C122.64 52.2267 121.96 52.92 120.6 52.92H111.16C113.747 54.8933 116.8 56.52 120.32 57.8C121.413 58.1467 122.08 58.5867 122.32 59.12C122.56 59.7067 122.347 60.4267 121.68 61.28C121.253 61.84 120.787 62.1733 120.28 62.28C119.8 62.4133 119.213 62.36 118.52 62.12C114.28 60.3867 110.547 58.04 107.32 55.08V61.04C107.32 62.6133 106.533 63.4 104.96 63.4ZM111 42.84L111.96 42.8C112.627 41.92 113.453 40.6933 114.44 39.12C113.507 37.9733 112.36 36.7733 111 35.52V39.2V42.84ZM102.96 42.72H106.96V39.72H104.96H102.96V42.72ZM93.08 42.56L95.4 42.36C95.3467 42.1733 95.2533 41.88 95.12 41.48C94.96 40.8667 94.8267 40.4267 94.72 40.16C94.4533 40.6133 94.1867 41.0267 93.92 41.4C93.84 41.5333 93.7067 41.7333 93.52 42C93.3333 42.24 93.1867 42.4267 93.08 42.56ZM116.08 42.56L118.68 42.4C118.307 41.3333 118.027 40.5467 117.84 40.04C117.707 40.28 117.48 40.6133 117.16 41.04C117.08 41.1733 117.013 41.2667 116.96 41.32C116.667 41.7733 116.373 42.1867 116.08 42.56ZM102.96 36.4H104.96H106.96V34.4C106.96 33.76 106.64 33.44 106 33.44H103.92C103.28 33.44 102.96 33.76 102.96 34.4V36.4ZM151.6 63.48C150.053 63.48 149.28 62.72 149.28 61.2V55.72C147.44 58.1733 145.493 60.12 143.44 61.56C142.187 62.3333 141.12 62.1867 140.24 61.12C139.6 60.3733 139.347 59.72 139.48 59.16C139.64 58.6 140.16 58.0933 141.04 57.64C143.413 56.1467 145.4 54.3333 147 52.2H142.28C140.947 52.2 140.28 51.5333 140.28 50.2C140.28 48.8667 140.947 48.2 142.28 48.2H149.28V45.76H146.4C145.627 45.76 145 45.52 144.52 45.04C144.04 44.56 143.8 43.9333 143.8 43.16V34.2H142.12C140.787 34.2 140.12 33.5333 140.12 32.2C140.12 30.8667 140.787 30.2 142.12 30.2H143.8V28.24C143.8 26.8267 144.52 26.12 145.96 26.12C147.373 26.12 148.08 26.8267 148.08 28.24V30.2H155.12V28.36C155.12 26.8667 155.867 26.12 157.36 26.12C158.853 26.12 159.6 26.8667 159.6 28.36V30.2H161.04C162.373 30.2 163.04 30.8667 163.04 32.2C163.04 33.5333 162.373 34.2 161.04 34.2H159.6V43.16C159.6 43.9333 159.36 44.56 158.88 45.04C158.4 45.52 157.773 45.76 157 45.76H153.88V48.2H158.52H161.2C162.533 48.2 163.2 48.8667 163.2 50.2C163.2 51.5333 162.533 52.2 161.2 52.2H156.08C157.547 54.04 159.333 55.7067 161.44 57.2C162.32 57.7333 162.813 58.28 162.92 58.84C163.053 59.3733 162.8 60.0133 162.16 60.76C161.627 61.3733 161.107 61.6933 160.6 61.72C160.093 61.7733 159.52 61.5333 158.88 61C157.093 59.4533 155.427 57.6133 153.88 55.48V61.2C153.88 62.72 153.12 63.48 151.6 63.48ZM131.4 61.92C130.733 62.4267 130.133 62.6533 129.6 62.6C129.093 62.5733 128.6 62.24 128.12 61.6C127.613 60.88 127.413 60.2667 127.52 59.76C127.627 59.2533 128.04 58.7333 128.76 58.2C130.227 56.92 131.493 55.2133 132.56 53.08C132.347 52.8667 132.04 52.5733 131.64 52.2C131.24 51.8267 130.947 51.5467 130.76 51.36V51.44C130.68 51.7867 130.427 51.96 130 51.96C129.627 51.96 129.253 51.84 128.88 51.6C127.493 50.64 126.907 49.7067 127.12 48.8C127.68 46.32 128.387 42.8533 129.24 38.4H128.68C127.24 38.4 126.52 37.68 126.52 36.24C126.52 34.8 127.24 34.08 128.68 34.08H130C130.187 32.9867 130.44 31.3733 130.76 29.24C130.84 28.7867 130.893 28.44 130.92 28.2C131.107 26.8667 131.907 26.2533 133.32 26.36C134.84 26.4667 135.48 27.2533 135.24 28.72C135.053 29.8933 134.747 31.68 134.32 34.08H138.04C138.867 34.08 139.493 34.3333 139.92 34.84C140.373 35.3467 140.573 36.0667 140.52 37C140.36 39.48 140.093 41.8933 139.72 44.24C139.24 47.28 138.587 49.92 137.76 52.16C138.747 53.2 139.44 53.96 139.84 54.44C140.48 55.2933 140.44 56.2 139.72 57.16C138.6 58.6 137.507 58.6133 136.44 57.2C136.387 57.12 136.28 57 136.12 56.84C135.987 56.68 135.88 56.56 135.8 56.48C134.627 58.56 133.16 60.3733 131.4 61.92ZM134.24 48.88C134.72 47.3333 135.12 45.7067 135.44 44C135.76 42.3467 135.987 40.8133 136.12 39.4C136.147 38.7333 135.853 38.4 135.24 38.4H133.48C133.08 40.4 132.507 43.1867 131.76 46.76C132.293 47.2133 133.12 47.92 134.24 48.88ZM149.04 41.96H154.16C154.8 41.96 155.12 41.64 155.12 41V39.8H151.6H148.08V41C148.08 41.64 148.4 41.96 149.04 41.96ZM148.08 36.32H151.6H155.12V34.2H148.08V36.32ZM178.2 63.44C176.867 63.4933 176.04 62.9733 175.72 61.88C175.32 60.52 175.853 59.8667 177.32 59.92C177.613 59.8933 177.76 59.7333 177.76 59.44V56.68H173.52V61.52C173.52 62.8267 172.867 63.48 171.56 63.48C170.227 63.48 169.56 62.8267 169.56 61.52V44.96H168.24C167.547 44.96 167.2 44.6133 167.2 43.92V40.88C167.2 40.2133 167.387 39.6933 167.76 39.32C168.16 38.92 168.693 38.72 169.36 38.72H169.48V29.96C169.48 29.1867 169.72 28.56 170.2 28.08C170.68 27.6 171.307 27.36 172.08 27.36H179.32C180.093 27.36 180.72 27.6 181.2 28.08C181.68 28.56 181.92 29.1867 181.92 29.96V38.72H183.24C183.933 38.72 184.28 39.0667 184.28 39.76V43.24H201.56C202.6 43.24 203.12 43.76 203.12 44.8C203.12 45.8667 202.6 46.4 201.56 46.4H193.68H185.56C185.16 46.4 184.84 46.28 184.6 46.04C184.36 45.8 184.24 45.48 184.24 45.08V44.96H181.76V59.48C181.76 60.3867 181.68 61.08 181.52 61.56C181.307 62.0933 180.947 62.5067 180.44 62.8C179.907 63.1467 179.16 63.36 178.2 63.44ZM185.08 63C183.96 63 183.4 62.44 183.4 61.32C183.4 60.2 183.96 59.64 185.08 59.64H188.48C188.213 58.92 187.973 58.32 187.76 57.84C187.253 56.88 187.52 56.2 188.56 55.8L189.44 55.48H187.4C186.867 55.48 186.44 55.32 186.12 55C185.8 54.68 185.64 54.2533 185.64 53.72V50.28C185.64 49.5067 185.88 48.88 186.36 48.4C186.84 47.92 187.467 47.68 188.24 47.68H199.24C200.013 47.68 200.64 47.92 201.12 48.4C201.6 48.88 201.84 49.5067 201.84 50.28V52.88C201.84 53.6533 201.6 54.28 201.12 54.76C200.64 55.24 200.013 55.48 199.24 55.48H198.12L199.44 55.8C200.133 55.96 200.293 56.3733 199.92 57.04C199.787 57.28 199.573 57.64 199.28 58.12C198.907 58.8133 198.627 59.32 198.44 59.64H201.88C203 59.64 203.56 60.2 203.56 61.32C203.56 62.44 203 63 201.88 63H193.48H185.08ZM192.2 59.64H194.92C195.72 57.7467 196.24 56.36 196.48 55.48H193.44H190.44C191.32 56.9467 191.907 58.3333 192.2 59.64ZM173.52 53.48H177.76V51.64H175.64H173.52V53.48ZM190.4 52.68H196.92C197.56 52.68 197.88 52.36 197.88 51.72V51.44C197.88 50.8 197.56 50.48 196.92 50.48H193.64H190.4C189.76 50.48 189.44 50.8 189.44 51.44V51.72C189.44 52.36 189.76 52.68 190.4 52.68ZM173.52 48.52H175.64H177.76V46.76H173.52V48.52ZM170.6 43.56H175.68H180.76V42.64C180.76 42.1867 180.533 41.96 180.08 41.96H171.56C170.92 41.96 170.6 42.28 170.6 42.92V43.56ZM187.68 41.88C186.907 41.88 186.28 41.64 185.8 41.16C185.32 40.68 185.08 40.0533 185.08 39.28V32.08C185.08 31.3067 185.32 30.68 185.8 30.2C186.28 29.72 186.907 29.48 187.68 29.48H189.48V27.8C189.48 26.7067 190.027 26.16 191.12 26.16C192.213 26.16 192.76 26.7067 192.76 27.8V29.48H194.48V27.8C194.48 26.7067 195.04 26.16 196.16 26.16C197.253 26.16 197.8 26.7067 197.8 27.8V29.48H200.24C200.907 29.48 201.427 29.68 201.8 30.08C202.2 30.4533 202.4 30.9733 202.4 31.64V39.28C202.4 40.0533 202.16 40.68 201.68 41.16C201.2 41.64 200.573 41.88 199.8 41.88H193.72H187.68ZM189.28 38.84H190.24V37.96V37.08H188.52V38.08C188.52 38.5867 188.773 38.84 189.28 38.84ZM192.76 38.84H194.48V37.96V37.08H192.76V38.84ZM197 38.84H197.88H198.44C198.653 38.84 198.76 38.7333 198.76 38.52V37.08H197V38.84ZM172.84 38.72H174.24V34.96C174.24 34.1867 174.48 33.56 174.96 33.08C175.44 32.6 176.067 32.36 176.84 32.36H178.4V31.4C178.4 30.9467 178.173 30.72 177.72 30.72H173.8C173.16 30.72 172.84 31.04 172.84 31.68V34.72V38.72ZM176.72 38.72H178.4V35.04H177.44C176.96 35.04 176.72 35.28 176.72 35.76V36.88V38.72ZM188.52 34.2H190.24V32.48H189.36H188.8C188.613 32.48 188.52 32.5733 188.52 32.76V34.2ZM192.76 34.2H194.48V32.48H192.76V33.36V34.2ZM197 34.2H197.88H198.76V33.2C198.76 32.72 198.52 32.48 198.04 32.48H197V34.2ZM217.2 63.56C215.813 63.56 215.12 62.8667 215.12 61.48V50.2C214.613 54.3333 213.453 57.88 211.64 60.84C211.08 61.5867 210.547 62.0267 210.04 62.16C209.507 62.2933 208.92 62.0667 208.28 61.48C207.213 60.52 207.2 59.28 208.24 57.76C210.24 54.2933 211.24 49.4667 211.24 43.28V38.32C211.24 37.44 211.493 36.8 212 36.4C212.533 35.9733 213.227 35.8533 214.08 36.04L214.28 36.08C218.413 35.9467 222.267 35.7467 225.84 35.48C225.547 35.32 225.067 35.0533 224.4 34.68C224.08 34.4933 223.84 34.36 223.68 34.28C223.253 34.0667 223.027 33.8 223 33.48C222.973 33.16 223.187 32.8 223.64 32.4L218.76 32.48C219.32 33.6533 218.947 34.4267 217.64 34.8C216.147 35.2533 215.12 34.8 214.56 33.44C214.453 33.2267 214.267 32.88 214 32.4H213.36C212.933 33.0133 212.373 33.72 211.68 34.52C210.72 35.5067 209.68 35.6267 208.56 34.88C207.787 34.3467 207.387 33.8133 207.36 33.28C207.36 32.7467 207.72 32.1467 208.44 31.48C209.56 30.28 210.493 29.0133 211.24 27.68C211.853 26.4267 212.907 26 214.4 26.4C215.84 26.8 216.24 27.6267 215.6 28.88H222.8C223.307 28.88 223.707 29.0267 224 29.32C224.293 29.6133 224.44 30.0133 224.44 30.52V30.64C224.44 31.2533 224.653 31.3333 225.08 30.88C225.96 29.84 226.707 28.76 227.32 27.64C227.907 26.4133 228.933 25.9733 230.4 26.32C231.093 26.48 231.56 26.7867 231.8 27.24C232.067 27.6667 232.04 28.2133 231.72 28.88H241.04C242.213 28.88 242.8 29.4667 242.8 30.64C242.8 31.8133 242.213 32.4 241.04 32.4H236.84C237.08 32.7467 237.32 33.1067 237.56 33.48C237.693 33.6667 237.707 33.8533 237.6 34.04C237.52 34.2267 237.347 34.36 237.08 34.44L236.68 34.56L238.16 36.08C238.56 36.48 238.72 36.8267 238.64 37.12C238.587 37.4133 238.333 37.6 237.88 37.68C231.613 38.6133 224.173 39.1467 215.56 39.28V40.36H237C237.773 40.36 238.4 40.6 238.88 41.08C239.36 41.56 239.6 42.1867 239.6 42.96V46.04C239.6 46.8133 239.36 47.44 238.88 47.92C238.4 48.4 237.773 48.64 237 48.64H215.32C215.32 48.8 215.293 49.04 215.24 49.36C215.213 49.6533 215.187 49.88 215.16 50.04H228.04H238.32C239.093 50.04 239.72 50.28 240.2 50.76C240.68 51.24 240.92 51.8667 240.92 52.64V59.72C240.92 60.68 240.827 61.3867 240.64 61.84C240.427 62.32 240.027 62.6933 239.44 62.96C238.88 63.2533 237.96 63.4267 236.68 63.48C235.4 63.5333 234.613 63.08 234.32 62.12C233.867 60.7867 234.44 60.1467 236.04 60.2C236.36 60.1733 236.52 60.0133 236.52 59.72V58.28H233.28V61.32C233.28 62.6 232.64 63.24 231.36 63.24C230.08 63.24 229.44 62.6 229.44 61.32V58.28H226.28V61.32C226.28 62.6 225.64 63.24 224.36 63.24C223.08 63.24 222.44 62.6 222.44 61.32V58.28H219.28V61.48C219.28 62.8667 218.587 63.56 217.2 63.56ZM219.28 55.16H220.84H222.44V53.4H219.28V55.16ZM226.28 55.16H229.44V53.4H227.84H226.28V55.16ZM233.28 55.16H234.88H236.52V54.16C236.52 53.6533 236.267 53.4 235.76 53.4H233.28V55.16ZM215.52 45.48H225.32H234.2C234.84 45.48 235.16 45.16 235.16 44.52V44.4C235.16 43.84 234.88 43.56 234.32 43.56H215.56C215.56 44.3867 215.547 45.0267 215.52 45.48ZM226.8 35.44C227.147 35.4133 227.667 35.36 228.36 35.28C229.16 35.2267 229.76 35.1733 230.16 35.12C231.013 35.0667 232.04 34.96 233.24 34.8C232.92 34.24 232.4 33.44 231.68 32.4H229.48C228.733 33.3867 227.84 34.4 226.8 35.44Z" fill="white"/>
<g clip-path="url(#clip1_62_349)">
<g opacity="0.23">
<path d="M215.225 202.491H197.199V154.164C197.199 138.534 184.47 125.814 168.825 125.814C153.179 125.814 140.446 138.529 140.446 154.164V202.491H122.42V154.164C122.42 128.602 143.237 107.805 168.825 107.805C194.412 107.805 215.23 128.602 215.23 154.164V202.491H215.225Z" fill="white"/>
</g>
<path opacity="0.23" d="M131.099 180.609C127.776 180.609 125.084 177.919 125.084 174.6V158.974C125.084 155.655 127.776 152.966 131.099 152.966C134.422 152.966 137.114 155.655 137.114 158.974V174.6C137.114 177.919 134.422 180.609 131.099 180.609Z" fill="white" stroke="#595757" stroke-width="2.54" stroke-miterlimit="10"/>
<path opacity="0.62" d="M168.82 107.801C144.68 107.801 124.796 126.314 122.623 149.871C122.83 149.218 128.953 116.156 162.084 115.161C188.497 114.368 196.04 135.426 197.064 151.443C197.149 152.335 197.199 153.24 197.199 154.159V202.486H215.225V154.159C215.225 128.597 194.408 107.801 168.82 107.801Z" fill="white" stroke="white" stroke-width="6" stroke-miterlimit="10"/>
<path opacity="0.62" d="M134.413 196.986H111.071C102.911 196.986 96.2957 203.595 96.2957 211.747V241.376C96.2957 249.528 102.911 256.137 111.071 256.137H134.413C142.574 256.137 149.189 249.528 149.189 241.376V211.747C149.189 203.595 142.574 196.986 134.413 196.986Z" fill="white" stroke="white" stroke-width="6" stroke-miterlimit="10"/>
<path opacity="0.62" d="M144.928 196.986H121.586C113.425 196.986 106.81 203.595 106.81 211.747V241.376C106.81 249.528 113.425 256.137 121.586 256.137H144.928C153.088 256.137 159.703 249.528 159.703 241.376V211.747C159.703 203.595 153.088 196.986 144.928 196.986Z" fill="white" stroke="white" stroke-width="6" stroke-miterlimit="10"/>
<path opacity="0.62" d="M151.817 241.52V211.603C151.817 207.881 148.797 204.864 145.072 204.864H121.441C117.716 204.864 114.696 207.881 114.696 211.603V241.52C114.696 245.242 117.716 248.259 121.441 248.259H145.072C148.797 248.259 151.817 245.242 151.817 241.52Z" fill="white" stroke="white" stroke-width="6" stroke-miterlimit="10"/>
<path opacity="0.23" d="M145.189 204.864H139.68C143.336 204.864 146.308 207.837 146.308 211.486V241.633C146.308 245.286 143.336 248.254 139.68 248.254H145.189C148.846 248.254 151.817 245.281 151.817 241.633V211.486C151.817 207.833 148.846 204.864 145.189 204.864Z" fill="white"/>
<path d="M145.687 148.729L74.2312 170.69L90.4919 223.493L161.948 201.532L145.687 148.729Z" fill="url(#paint1_linear_62_349)" stroke="white" stroke-width="6" stroke-miterlimit="10"/>
<path opacity="0.33" d="M93.7075 193.599L95.006 255.759C95.263 267.979 84.7484 277.663 72.5746 276.42C62.4298 275.384 54.6205 267.006 54.3003 256.826L52.4878 199.257L93.7075 193.604V193.599Z" fill="white" stroke="white" stroke-width="6" stroke-miterlimit="10"/>
<path d="M75.1449 165.569C58.106 170.807 48.5473 188.851 53.7866 205.869C59.0303 222.89 77.0927 232.44 94.127 227.206C111.166 221.967 120.725 203.923 115.485 186.906C110.242 169.884 92.1792 160.335 75.1449 165.569Z" fill="url(#paint2_linear_62_349)" stroke="white" stroke-width="6" stroke-miterlimit="10"/>
<path d="M76.5065 169.987C61.9114 174.474 53.7189 189.933 58.2096 204.513C62.7004 219.093 78.1747 227.278 92.7698 222.792C107.365 218.305 115.557 202.846 111.067 188.266C106.576 173.685 91.1015 165.501 76.5065 169.987Z" fill="url(#paint3_linear_62_349)" stroke="white" stroke-width="6" stroke-miterlimit="10"/>
<path d="M93.7751 204.148C93.0717 201.869 94.3522 199.455 96.6337 198.752L106.026 195.865C105.976 193.95 105.692 192.014 105.101 190.095C104.511 188.176 103.658 186.41 102.617 184.802L93.225 187.689C90.9436 188.392 88.5268 187.113 87.8235 184.834L84.7935 174.996C82.6609 174.983 80.4876 175.285 78.3369 175.942C76.1862 176.604 74.2203 177.573 72.4664 178.784L75.4963 188.622C76.1997 190.901 74.9192 193.315 72.6377 194.018L63.2458 196.905C63.2954 198.82 63.5795 200.756 64.1702 202.675C64.7608 204.594 65.613 206.36 66.6545 207.968L76.0464 205.081C78.3279 204.378 80.7446 205.657 81.448 207.936L84.4779 217.774C86.6106 217.787 88.7838 217.485 90.9346 216.828C93.0853 216.166 95.0511 215.197 96.805 213.986L93.7751 204.148Z" fill="url(#paint4_linear_62_349)" stroke="white" stroke-width="6" stroke-miterlimit="10"/>
<g opacity="0.23">
<path d="M79.3199 179.118L77.354 182.834L83.0351 181.086L79.3199 179.118Z" fill="white"/>
<path d="M89.8886 213.441L91.859 209.729L86.1733 211.472L89.8886 213.441Z" fill="white"/>
</g>
<g opacity="0.23">
<path d="M101.783 191L98.0676 189.036L99.8125 194.712L101.783 191Z" fill="white"/>
<path d="M67.4302 201.558L71.1454 203.527L69.396 197.847L67.4302 201.558Z" fill="white"/>
</g>
<path opacity="0.33" d="M142.822 178.501L176.724 230.638C183.388 240.89 197.537 242.993 206.902 235.124C214.706 228.571 216.456 217.256 210.991 208.652L180.092 160.024L142.822 178.501Z" fill="white" stroke="white" stroke-width="6" stroke-miterlimit="10"/>
<path d="M142.398 144.894C159.437 139.655 177.5 149.209 182.739 166.231C187.983 183.253 178.419 201.297 161.381 206.531C144.342 211.769 126.279 202.216 121.04 185.194C115.796 168.172 125.36 150.128 142.398 144.894Z" fill="url(#paint5_linear_62_349)" stroke="white" stroke-width="6" stroke-miterlimit="10"/>
<path d="M143.76 149.313C158.355 144.826 173.829 153.011 178.32 167.591C182.811 182.172 174.619 197.63 160.023 202.117C145.428 206.603 129.954 198.419 125.463 183.838C120.973 169.258 129.165 153.799 143.76 149.313Z" fill="url(#paint6_linear_62_349)" stroke="white" stroke-width="6" stroke-miterlimit="10"/>
<path d="M147.759 170.546C152.324 170.546 156.024 166.849 156.024 162.29C156.024 157.73 152.324 154.033 147.759 154.033C143.195 154.033 139.495 157.73 139.495 162.29C139.495 166.849 143.195 170.546 147.759 170.546Z" fill="white"/>
<path d="M156.029 197.392C160.593 197.392 164.293 193.695 164.293 189.135C164.293 184.575 160.593 180.879 156.029 180.879C151.464 180.879 147.764 184.575 147.764 189.135C147.764 193.695 151.464 197.392 156.029 197.392Z" fill="white"/>
<path d="M165.326 179.838C169.89 179.838 173.59 176.142 173.59 171.582C173.59 167.022 169.89 163.325 165.326 163.325C160.761 163.325 157.061 167.022 157.061 171.582C157.061 176.142 160.761 179.838 165.326 179.838Z" fill="white"/>
<path d="M138.458 188.099C143.022 188.099 146.722 184.403 146.722 179.843C146.722 175.283 143.022 171.586 138.458 171.586C133.893 171.586 130.193 175.283 130.193 179.843C130.193 184.403 133.893 188.099 138.458 188.099Z" fill="white"/>
<g opacity="0.33">
<path d="M213.106 196.986H189.764C181.603 196.986 174.988 203.595 174.988 211.747V241.376C174.988 249.528 181.603 256.137 189.764 256.137H213.106C221.266 256.137 227.881 249.528 227.881 241.376V211.747C227.881 203.595 221.266 196.986 213.106 196.986Z" fill="white" stroke="white" stroke-width="6" stroke-miterlimit="10"/>
</g>
<path opacity="0.33" d="M222.867 196.986H199.525C191.365 196.986 184.75 203.595 184.75 211.747V241.376C184.75 249.528 191.365 256.137 199.525 256.137H222.867C231.028 256.137 237.643 249.528 237.643 241.376V211.747C237.643 203.595 231.028 196.986 222.867 196.986Z" fill="white" stroke="white" stroke-width="6" stroke-miterlimit="10"/>
<path opacity="0.33" d="M212.42 244.056C222.092 244.056 229.933 236.224 229.933 226.562C229.933 216.9 222.092 209.067 212.42 209.067C202.749 209.067 194.908 216.9 194.908 226.562C194.908 236.224 202.749 244.056 212.42 244.056Z" fill="white" stroke="white" stroke-width="6" stroke-miterlimit="10"/>
<path opacity="0.33" d="M216.925 244.056C226.597 244.056 234.437 236.224 234.437 226.562C234.437 216.9 226.597 209.067 216.925 209.067C207.253 209.067 199.413 216.9 199.413 226.562C199.413 236.224 207.253 244.056 216.925 244.056Z" fill="white" stroke="white" stroke-width="6" stroke-miterlimit="10"/>
<g opacity="0.23">
<path d="M122.744 282.897C201.563 282.897 216.929 257.754 216.929 226.562L122.744 282.897Z" fill="white"/>
<path d="M122.744 282.897C201.563 282.897 216.929 257.754 216.929 226.562" stroke="#CCCFD0" stroke-width="12.72" stroke-miterlimit="10"/>
</g>
<path opacity="0.23" d="M139.95 281.433H134.467C131.678 281.433 129.417 283.692 129.417 286.478V291.955C129.417 294.741 131.678 297 134.467 297H139.95C142.739 297 145 294.741 145 291.955V286.478C145 283.692 142.739 281.433 139.95 281.433Z" fill="white"/>
<path opacity="0.33" d="M223.611 226.561C223.611 230.251 220.618 233.241 216.925 233.241C213.232 233.241 210.238 230.251 210.238 226.561C210.238 222.872 213.232 219.882 216.925 219.882C220.618 219.882 223.611 222.872 223.611 226.561Z" fill="white" stroke="white" stroke-width="6" stroke-miterlimit="10"/>
<path opacity="0.23" d="M212.416 158.979C212.416 155.66 209.724 152.97 206.403 152.97C203.083 152.97 200.391 155.66 200.391 158.979V174.6C200.391 177.918 203.083 180.609 206.403 180.609C209.724 180.609 212.416 177.918 212.416 174.6V158.979Z" fill="white" stroke="#595757" stroke-width="2.54" stroke-miterlimit="10"/>
<path opacity="0.23" d="M213.227 173.69H199.187C195.155 173.69 191.887 176.955 191.887 180.982V184.753C191.887 188.78 195.155 192.045 199.187 192.045H213.227C217.259 192.045 220.527 188.78 220.527 184.753V180.982C220.527 176.955 217.259 173.69 213.227 173.69Z" fill="white"/>
<path opacity="0.59" d="M137.11 86.0315C141.357 86.0315 144.802 89.4323 144.802 93.6303C144.802 97.8283 141.357 101.225 137.11 101.225C132.862 101.225 129.417 97.8238 129.417 93.6303C129.417 89.4368 132.862 86.0315 137.11 86.0315Z" fill="white"/>
<path opacity="0.59" d="M89.0139 128.548C95.0422 128.548 99.9343 133.376 99.9343 139.331C99.9343 145.286 95.0467 150.114 89.0139 150.114C82.9811 150.114 78.0935 145.286 78.0935 139.331C78.0935 133.376 82.9811 128.548 89.0139 128.548Z" fill="white"/>
<path opacity="0.59" d="M215.22 114.08C216.456 114.08 217.457 115.066 217.457 116.282C217.457 117.499 216.456 118.49 215.22 118.49C213.985 118.49 212.989 117.503 212.989 116.282C212.989 115.062 213.989 114.08 215.22 114.08Z" fill="white"/>
<path opacity="0.59" d="M199.413 86C200.648 86 201.649 86.9864 201.649 88.2026C201.649 89.4188 200.648 90.4097 199.413 90.4097C198.177 90.4097 197.181 89.4233 197.181 88.2026C197.181 86.9819 198.182 86 199.413 86Z" fill="white"/>
<path opacity="0.59" d="M180.728 91.4231C181.963 91.4231 182.96 92.4095 182.96 93.6302C182.96 94.8509 181.959 95.8373 180.728 95.8373C179.497 95.8373 178.496 94.8509 178.496 93.6302C178.496 92.4095 179.497 91.4231 180.728 91.4231Z" fill="white"/>
<path opacity="0.59" d="M114.962 105.571C116.198 105.571 117.198 106.558 117.198 107.778C117.198 108.999 116.198 109.986 114.962 109.986C113.727 109.986 112.73 108.999 112.73 107.778C112.73 106.558 113.731 105.571 114.962 105.571Z" fill="white"/>
<path opacity="0.59" d="M64.4452 160.083C65.6807 160.083 66.6816 161.069 66.6816 162.29C66.6816 163.51 65.6807 164.497 64.4452 164.497C63.2098 164.497 62.2134 163.51 62.2134 162.29C62.2134 161.069 63.2143 160.083 64.4452 160.083Z" fill="white"/>
</g>
</g>
<defs>
<linearGradient id="paint0_linear_62_349" x1="145" y1="0" x2="145" y2="290" gradientUnits="userSpaceOnUse">
<stop stop-color="#FF922E"/>
<stop offset="1" stop-color="#FDB471"/>
</linearGradient>
<linearGradient id="paint1_linear_62_349" x1="74.2354" y1="186.107" x2="161.955" y2="186.107" gradientUnits="userSpaceOnUse">
<stop stop-color="#FE7A00"/>
<stop offset="1" stop-color="#FFC188"/>
</linearGradient>
<linearGradient id="paint2_linear_62_349" x1="52.3528" y1="196.387" x2="116.924" y2="196.387" gradientUnits="userSpaceOnUse">
<stop stop-color="#FE7A00"/>
<stop offset="1" stop-color="#FFC188"/>
</linearGradient>
<linearGradient id="paint3_linear_62_349" x1="56.9832" y1="196.387" x2="112.298" y2="196.387" gradientUnits="userSpaceOnUse">
<stop stop-color="#FE7A00"/>
<stop offset="1" stop-color="#FFC188"/>
</linearGradient>
<linearGradient id="paint4_linear_62_349" x1="63.2504" y1="196.387" x2="106.026" y2="196.387" gradientUnits="userSpaceOnUse">
<stop stop-color="#FE7A00"/>
<stop offset="1" stop-color="#FFC188"/>
</linearGradient>
<linearGradient id="paint5_linear_62_349" x1="119.606" y1="175.712" x2="184.177" y2="175.712" gradientUnits="userSpaceOnUse">
<stop stop-color="#FE7A00"/>
<stop offset="1" stop-color="#FFC188"/>
</linearGradient>
<linearGradient id="paint6_linear_62_349" x1="124.237" y1="175.712" x2="179.551" y2="175.712" gradientUnits="userSpaceOnUse">
<stop stop-color="#FE7A00"/>
<stop offset="1" stop-color="#FFC188"/>
</linearGradient>
<clipPath id="clip0_62_349">
<rect width="290" height="290" rx="29.0909" fill="white"/>
</clipPath>
<clipPath id="clip1_62_349">
<rect width="188" height="211" fill="white" transform="translate(51 86)"/>
</clipPath>
</defs>
</svg>
